<svg width="104" height="112" viewBox="0 0 104 112" fill="none" xmlns="http://www.w3.org/2000/svg">
<ellipse cx="53.6974" cy="109.19" rx="50.1875" ry="2.75" fill="#C4C4C4"/>
<path d="M89.5 56.75H5.44995V109.191H89.5V56.75Z" fill="#FDB827"/>
<path d="M56.2061 56.75H38.7333V109.191H56.2061V56.75Z" fill="#AD1717"/>
<path d="M48.1021 31.5605C48.1021 31.5605 40.6286 9.93047 28.7395 16.1105C16.8504 22.2905 17.3376 42.4405 33.3107 41.1305C49.2837 39.8205 48.1021 31.5605 48.1021 31.5605Z" fill="#D32F2F"/>
<path d="M49.4703 31.5605C49.4703 31.5605 56.9541 9.93047 68.8432 16.1105C80.7323 22.2905 80.2451 42.4505 64.272 41.1105C48.299 39.7705 49.4703 31.5605 49.4703 31.5605Z" fill="#D32F2F"/>
<path d="M48.7862 39.2905C52.6617 39.2905 55.8035 36.2594 55.8035 32.5205C55.8035 28.7815 52.6617 25.7505 48.7862 25.7505C44.9106 25.7505 41.7688 28.7815 41.7688 32.5205C41.7688 36.2594 44.9106 39.2905 48.7862 39.2905Z" fill="#AD1717"/>
<path d="M88.7448 37.6705H6.2052C3.30281 37.6705 0.949951 39.9404 0.949951 42.7405V52.1305C0.949951 54.9306 3.30281 57.2005 6.2052 57.2005H88.7448C91.6472 57.2005 94 54.9306 94 52.1305V42.7405C94 39.9404 91.6472 37.6705 88.7448 37.6705Z" fill="#F3703A"/>
<path d="M56.0834 37.6705H38.8665V57.2005H56.0834V37.6705Z" fill="#D32F2F"/>
</svg>
