<svg width="131" height="73" viewBox="0 0 131 73" fill="none" xmlns="http://www.w3.org/2000/svg">
<ellipse cx="12.1275" cy="12.131" rx="12.1275" ry="12.131" transform="matrix(0.709214 -0.704993 0.709214 0.704993 73.4792 44.3403)" fill="#74AA63"/>
<path d="M103.244 56.8282L88.9488 56.3575L102.731 42.6577L103.244 56.8282Z" fill="#74AA63"/>
<path d="M102.86 56.4426C99.5734 49.9092 90.6892 36.8425 81.4425 36.8425" stroke="#638A4E" stroke-width="2"/>
<path d="M94.0322 32.6888H60.9773C50.5169 32.6889 40.8933 37.8866 40.8933 49.7376C40.8933 64.5408 40.8933 58.0567 40.8933 59.5889C40.8933 69.8042 35.4562 72 24.8371 72C3.91631 72 -46.9742 72 -93 72" stroke="#638A4E" stroke-width="2"/>
<ellipse cx="12.1275" cy="12.131" rx="12.1275" ry="12.131" transform="matrix(0.709214 0.704993 0.709214 -0.704993 52.241 21.0377)" fill="#74AA63"/>
<path d="M82.0056 8.54987L67.7107 9.02056L81.4926 22.7204L82.0056 8.54987Z" fill="#74AA63"/>
<path d="M81.6215 8.9355C78.3353 15.4688 69.4511 28.5355 60.2044 28.5355" stroke="#638A4E" stroke-width="2"/>
<ellipse cx="108.077" cy="33.0294" rx="21.7925" ry="21.9232" transform="rotate(90 108.077 33.0294)" fill="#BD2A31"/>
<path fill-rule="evenodd" clip-rule="evenodd" d="M118.978 32.8085C112.924 32.8085 108.017 37.6869 108.017 43.7047C108.017 37.6869 103.109 32.8085 97.055 32.8085C103.109 32.8085 108.017 27.9301 108.017 21.9122C108.017 27.9301 112.924 32.8085 118.978 32.8085Z" fill="#93141A"/>
<path d="M107.836 33.0237C113.993 32.7682 127.045 32.8704 130 35.323" stroke="#93141A" stroke-width="2" stroke-linecap="round"/>
<path d="M107.721 32.9282C108.029 38.9151 107.906 51.6075 104.945 54.4812" stroke="#93141A" stroke-width="2" stroke-linecap="round"/>
<path d="M107.836 32.8137C101.813 33.1203 89.0446 32.9977 86.1536 30.0545" stroke="#93141A" stroke-width="2" stroke-linecap="round"/>
<path d="M107.951 32.9282C107.643 26.8082 107.766 13.8338 110.727 10.8962" stroke="#93141A" stroke-width="2" stroke-linecap="round"/>
</svg>
